<?xml version="1.0" encoding="utf-8"?>
<!-- Generator: Adobe Illustrator 21.1.0, SVG Export Plug-In . SVG Version: 6.00 Build 0)  -->
<svg version="1.1" id="Roundit_xA0_Image_1_" xmlns="http://www.w3.org/2000/svg" xmlns:xlink="http://www.w3.org/1999/xlink"
	 x="0px" y="0px" viewBox="0 0 128.5 126" style="enable-background:new 0 0 128.5 126;" xml:space="preserve">
<style type="text/css">
	.st0{fill:#1386C3;}
	.st1{fill:#1788C4;}
</style>
<g>
	<path class="st0" d="M19.7,57.1c3,3.3,5.9,6.3,8.8,9.5c3.7-10.7,7.8-21.1,10.8-32c-9.2,0.9-18.3,1.9-27.8,2.8
		c10.2-16,24.2-25.9,42.8-28.1c24.6-2.9,44.3,6.2,57.5,27.1c12.6,20,11.8,40.8,0.6,61.7c-0.3-0.5-0.5-0.8-0.6-1.1
		c-2.8,1.2-5.6,2.1-8.6,2c-4.8-0.2-8-3.2-8.3-8c-0.1-1.1-0.1-2.2-0.1-3.4c0-8.8,0-17.7,0-26.5c0-0.4,0-0.9,0-1.4c6.4,0,12.6,0,19,0
		c0-4.9,0-9.6,0-14.5c-6.2,0-12.5,0-18.8,0c0-6.5,0-12.9,0-19.5c-5.7,0.6-11.2,1.2-16.9,1.8c0,5.9,0,11.7,0,17.6
		c-4.3,0-8.5,0-12.8,0c0,4.9,0,9.6,0,14.5c4.2,0,8.4,0,12.8,0c0,0.6,0,1,0,1.5c0,10.3-0.1,20.6,0.1,31c0.1,6.2,2.1,12,6.7,16.4
		c3.4,3.3,7.5,4.8,12.1,5.5c0.1,0,0.3,0,0.6,0.1c-0.4,0.3-0.7,0.6-1,0.8c-11.3,8.1-24,11.9-37.9,11c-15-1-28-6.5-38.3-17.7
		c-4.7-5.2-8.3-11.1-10.4-17.8c-3.6-11.1-1.1-20.9,6.3-29.7C17.4,59.5,18.5,58.4,19.7,57.1z M60.6,45c-5.7,0-11.2,0-16.8,0
		c0,23.1,0,46.1,0,69.2c5.6,0,11.2,0,16.8,0C60.6,91.1,60.6,68.1,60.6,45z M62.2,25.9c0-5.8-4-9.9-9.9-9.9c-5.9,0-10.1,4-10.1,9.8
		c0,5.8,4.1,9.9,9.9,9.9C58,35.8,62.1,31.8,62.2,25.9z"/>
	<path class="st1" d="M0,38.6c4-0.4,7.7-0.8,11.6-1.2c-1.5,3-2.9,6-4.3,8.9c0.1,0.2,0.1,0.3,0.2,0.4c1.8,2,1.8,2,0.2,4.2
		C6.8,52,6,53.2,4.9,54.4c0.2-0.8,0.4-1.7,0.6-2.5c0.3-1.2,0.6-2.4,1.1-3.5C7.4,46.9,6.9,46,5.9,45C3.9,43,2.1,40.9,0,38.6z"/>
</g>
</svg>
