<?xml version="1.0" encoding="UTF-8"?>
<svg width="14px" height="14px" viewBox="0 0 14 14" version="1.1" xmlns="http://www.w3.org/2000/svg" xmlns:xlink="http://www.w3.org/1999/xlink">
    <g stroke="none" stroke-width="1" fill-rule="evenodd">
        <g transform="translate(-1.000000, -1.000000)" fill-rule="nonzero">
            <path d="M5.625,9 L4.375,9 C4.16875,9 4,8.83125 4,8.625 L4,7.375 C4,7.16875 4.16875,7 4.375,7 L5.625,7 C5.83125,7 6,7.16875 6,7.375 L6,8.625 C6,8.83125 5.83125,9 5.625,9 Z M9,8.625 L9,7.375 C9,7.16875 8.83125,7 8.625,7 L7.375,7 C7.16875,7 7,7.16875 7,7.375 L7,8.625 C7,8.83125 7.16875,9 7.375,9 L8.625,9 C8.83125,9 9,8.83125 9,8.625 Z M12,8.625 L12,7.375 C12,7.16875 11.83125,7 11.625,7 L10.375,7 C10.16875,7 10,7.16875 10,7.375 L10,8.625 C10,8.83125 10.16875,9 10.375,9 L11.625,9 C11.83125,9 12,8.83125 12,8.625 Z M9,11.625 L9,10.375 C9,10.16875 8.83125,10 8.625,10 L7.375,10 C7.16875,10 7,10.16875 7,10.375 L7,11.625 C7,11.83125 7.16875,12 7.375,12 L8.625,12 C8.83125,12 9,11.83125 9,11.625 Z M6,11.625 L6,10.375 C6,10.16875 5.83125,10 5.625,10 L4.375,10 C4.16875,10 4,10.16875 4,10.375 L4,11.625 C4,11.83125 4.16875,12 4.375,12 L5.625,12 C5.83125,12 6,11.83125 6,11.625 Z M12,11.625 L12,10.375 C12,10.16875 11.83125,10 11.625,10 L10.375,10 C10.16875,10 10,10.16875 10,10.375 L10,11.625 C10,11.83125 10.16875,12 10.375,12 L11.625,12 C11.83125,12 12,11.83125 12,11.625 Z M15,4.5 L15,13.5 C15,14.328125 14.2321429,15 13.2857143,15 L2.71428571,15 C2.34588466,15 2.0045405,14.8981984 1.72500885,14.7250064 C1.28641896,14.4532652 1,14.0057741 1,13.5 L1,4.5 C1,3.671875 1.76785714,3 2.71428571,3 L3.42857143,3 L3.42857143,1.375 C3.42857143,1.16875 3.62142857,1 3.85714286,1 L5.28571429,1 C5.52142857,1 5.71428571,1.16875 5.71428571,1.375 L5.71428571,3 L10.2857143,3 L10.2857143,1.375 C10.2857143,1.16875 10.4785714,1 10.7142857,1 L12.1428571,1 C12.3785714,1 12.5714286,1.16875 12.5714286,1.375 L12.5714286,3 L13.2857143,3 C14.2321429,3 15,3.671875 15,4.5 Z M14,13 L14,5 C14,4.44771525 13.5522847,4 13,4 L3,4 C2.44771525,4 2,4.44771525 2,5 L2,13 C2,13.5522847 2.44771525,14 3,14 L13,14 C13.5522847,14 14,13.5522847 14,13 Z" />
        </g>
    </g>
</svg>